<svg width="3040" height="3040" viewBox="0 0 3040 3040" fill="none" xmlns="http://www.w3.org/2000/svg">
<g filter="url(#filter0_d_27_43)">
<path d="M1556.94 850.837L1557.2 850.837L1557.48 850.831C2039.66 840.19 2406.47 1024.34 2653.14 1211.55C2776.49 1305.17 2869.65 1399.46 2931.9 1470.26C2963.02 1505.65 2986.39 1535.14 3001.92 1555.69C3007.05 1562.48 3011.32 1568.29 3014.74 1573.02C3011.17 1577.57 3006.73 1583.15 3001.42 1589.67C2985.22 1609.52 2960.92 1638.03 2928.77 1672.3C2864.44 1740.87 2768.78 1832.4 2643.68 1923.94C2393.47 2107.04 2026.34 2289.6 1556.94 2289.61C1556.94 2289.61 1556.93 2289.61 1556.93 2289.61L1556.88 2289.6C1556.82 2289.6 1556.71 2289.6 1556.55 2289.6C1556.24 2289.6 1555.75 2289.6 1555.07 2289.59C1553.72 2289.56 1551.64 2289.52 1548.86 2289.44C1543.29 2289.26 1534.93 2288.91 1523.98 2288.21C1502.07 2286.8 1469.81 2283.96 1428.84 2278.27C1346.91 2266.87 1230.25 2244.03 1092.17 2198.25C820.346 2108.15 465.411 1929.2 128.492 1573.53C464.343 1214.55 819.286 1033.95 1091.37 943.022C1229.59 896.832 1346.45 873.781 1428.55 862.279C1469.59 856.529 1501.94 853.668 1523.9 852.245C1534.88 851.533 1543.26 851.181 1548.84 851.007C1551.62 850.92 1553.71 850.877 1555.07 850.857C1555.75 850.846 1556.24 850.841 1556.55 850.839L1556.88 850.837L1556.93 850.837L1556.94 850.837L1556.94 850.837Z" stroke="antiquewhite" stroke-width="50.0046"/>
<path d="M2069.29 1052.24L2069.48 1052.43L2069.68 1052.62C2418.15 1386.05 2547.31 1775.64 2589.35 2082.43C2610.38 2235.86 2609.58 2368.41 2603.54 2462.49C2600.52 2509.52 2596.19 2546.89 2592.64 2572.4C2591.46 2580.83 2590.37 2587.96 2589.45 2593.72C2583.71 2594.42 2576.62 2595.22 2568.26 2596.07C2542.76 2598.66 2505.43 2601.64 2458.46 2603.14C2364.49 2606.14 2232.12 2603.21 2078.93 2579.49C1772.54 2532.03 1383.85 2401.52 1051.93 2069.6C1051.92 2069.6 1051.92 2069.6 1051.92 2069.6L1051.88 2069.56C1051.84 2069.52 1051.76 2069.44 1051.66 2069.33C1051.44 2069.11 1051.09 2068.76 1050.62 2068.27C1049.68 2067.3 1048.23 2065.8 1046.33 2063.77C1042.52 2059.72 1036.85 2053.56 1029.61 2045.31C1015.11 2028.82 994.303 2004 969.367 1971.01C919.491 1905.01 853.155 1806.37 787.877 1676.36C659.382 1420.45 534.945 1042.93 548.206 553.195C1039.52 536.844 1418.21 660.122 1674.9 788.22C1805.29 853.295 1904.22 919.625 1970.41 969.547C2003.5 994.505 2028.39 1015.35 2044.93 1029.87C2053.2 1037.13 2059.37 1042.81 2063.44 1046.63C2065.47 1048.54 2066.98 1049.99 2067.95 1050.93C2068.44 1051.4 2068.79 1051.75 2069.01 1051.97L2069.25 1052.2L2069.28 1052.23L2069.29 1052.24L2069.29 1052.24Z" stroke="antiquewhite" stroke-width="50.0046"/>
<path d="M1070.71 1052.24L1070.52 1052.43L1070.32 1052.62C721.851 1386.05 592.69 1775.64 550.647 2082.43C529.621 2235.86 530.42 2368.41 536.463 2462.49C539.483 2509.52 543.811 2546.89 547.363 2572.4C548.536 2580.83 549.625 2587.96 550.554 2593.72C556.288 2594.42 563.376 2595.22 571.742 2596.07C597.236 2598.66 634.572 2601.64 681.543 2603.14C775.515 2606.14 907.885 2603.21 1061.07 2579.49C1367.46 2532.03 1756.15 2401.52 2088.07 2069.6C2088.08 2069.6 2088.08 2069.6 2088.08 2069.6L2088.12 2069.56C2088.16 2069.52 2088.24 2069.44 2088.34 2069.33C2088.56 2069.11 2088.91 2068.76 2089.38 2068.27C2090.32 2067.3 2091.77 2065.8 2093.67 2063.77C2097.48 2059.72 2103.15 2053.56 2110.39 2045.31C2124.89 2028.82 2145.7 2004 2170.63 1971.01C2220.51 1905.01 2286.84 1806.37 2352.12 1676.36C2480.62 1420.45 2605.06 1042.93 2591.79 553.195C2100.48 536.844 1721.79 660.122 1465.1 788.22C1334.71 853.295 1235.78 919.625 1169.59 969.547C1136.5 994.505 1111.61 1015.35 1095.07 1029.87C1086.8 1037.13 1080.63 1042.81 1076.56 1046.63C1074.53 1048.54 1073.02 1049.99 1072.05 1050.93C1071.56 1051.4 1071.21 1051.75 1070.99 1051.97L1070.75 1052.2L1070.72 1052.23L1070.71 1052.24L1070.71 1052.24Z" stroke="antiquewhite" stroke-width="50.0046"/>
<path d="M2289.16 1556.94V1557.21L2289.16 1557.48C2299.8 2039.66 2115.65 2406.47 1928.44 2653.14C1834.82 2776.5 1740.53 2869.65 1669.73 2931.91C1634.34 2963.02 1604.86 2986.39 1584.31 3001.92C1577.52 3007.05 1571.7 3011.32 1566.97 3014.74C1562.43 3011.18 1556.84 3006.73 1550.33 3001.42C1530.47 2985.22 1501.97 2960.93 1467.69 2928.77C1399.12 2864.45 1307.59 2768.78 1216.05 2643.69C1032.95 2393.47 850.392 2026.35 850.389 1556.94C850.389 1556.94 850.389 1556.93 850.389 1556.93L850.389 1556.88C850.389 1556.82 850.39 1556.71 850.391 1556.56C850.393 1556.24 850.398 1555.75 850.409 1555.07C850.429 1553.72 850.472 1551.64 850.558 1548.86C850.73 1543.3 851.079 1534.94 851.785 1523.98C853.195 1502.07 856.03 1469.81 861.728 1428.85C873.126 1346.91 895.969 1230.26 941.741 1092.17C1031.84 820.348 1210.79 465.413 1566.47 128.494C1925.44 464.345 2106.05 819.288 2196.97 1091.37C2243.16 1229.59 2266.21 1346.45 2277.71 1428.55C2283.47 1469.6 2286.33 1501.94 2287.75 1523.9C2288.46 1534.88 2288.81 1543.26 2288.99 1548.84C2289.07 1551.63 2289.12 1553.71 2289.14 1555.07C2289.15 1555.75 2289.15 1556.24 2289.16 1556.56L2289.16 1556.88L2289.16 1556.93V1556.94V1556.94Z" stroke="antiquewhite" stroke-width="50.0046"/>
</g>
<defs>
<filter id="filter0_d_27_43" x="85.293" y="89.2949" width="2969.41" height="2969.41" filterUnits="userSpaceOnUse" color-interpolation-filters="sRGB">
<feFlood flood-opacity="0" result="BackgroundImageFix"/>
<feColorMatrix in="SourceAlpha" type="matrix" values="0 0 0 0 0 0 0 0 0 0 0 0 0 0 0 0 0 0 127 0" result="hardAlpha"/>
<feOffset dy="4"/>
<feGaussianBlur stdDeviation="4.5"/>
<feComposite in2="hardAlpha" operator="out"/>
<feColorMatrix type="matrix" values="0 0 0 0 1 0 0 0 0 1 0 0 0 0 1 0 0 0 1 0"/>
<feBlend mode="normal" in2="BackgroundImageFix" result="effect1_dropShadow_27_43"/>
<feBlend mode="normal" in="SourceGraphic" in2="effect1_dropShadow_27_43" result="shape"/>
</filter>
</defs>
</svg>
