<svg width="3338" height="2686" viewBox="0 0 3338 2686" fill="none" xmlns="http://www.w3.org/2000/svg">
<path fill-rule="evenodd" clip-rule="evenodd" d="M1657.65 0L1627.66 28.6235L1627.76 28.6983C1477.85 226.138 1324.88 496.132 1231.32 747.715L698.157 439.645L637.465 404.576L618.403 472.029C580.33 606.756 555.466 747.601 544.154 890.663L78.0286 668.036L0 630.768V717.24C0 976.279 51.0217 1232.78 150.152 1472.1C249.282 1711.42 394.579 1928.88 577.747 2112.04C760.916 2295.21 978.368 2440.51 1217.69 2539.64C1257.21 2556.01 1289.45 2569.22 1316.27 2580.01C1406.26 2621.53 1476.2 2646.57 1528.67 2661.65C1569.76 2673.47 1600.25 2679.21 1621.34 2681.95C1628.64 2682.9 1634.82 2683.49 1639.93 2683.85V2685.51C1644.36 2685.51 1648.79 2685.47 1653.22 2685.39L1655.19 2686L1655.39 2685.35C1809.22 2682.29 1963.33 2633.69 2102.96 2548.28C2109.23 2545.16 2115.49 2541.96 2121.75 2538.68C2360.15 2439.57 2576.79 2294.62 2759.37 2112.04C2942.54 1928.88 3087.83 1711.42 3186.96 1472.1C3286.09 1232.78 3337.11 976.279 3337.11 717.24V631.302L3259.36 667.905L2783.78 891.788C2772.52 748.341 2747.63 607.112 2709.47 472.034L2690.42 404.581L2629.72 439.642L2087.62 752.794C1994.29 499.558 1840.06 227.779 1688.91 28.6969L1689.01 28.6211L1657.65 0ZM1360.81 2480.45C1367.59 2483.19 1373.97 2485.74 1379.99 2488.13C1345.85 2451.09 1311.39 2407.53 1278.74 2356.56L1278.09 2355.55L1277.49 2354.51C1164.34 2159.44 1099.53 1918.71 1086.7 1654.44C1074.14 1395.83 1111.63 1121.04 1195.39 852.907L705.421 569.795C653.934 780.625 635.543 1005.76 652.015 1228.93C670.276 1476.34 730.752 1712.8 827.493 1917.53C925.305 2124.53 1039.29 2292.56 1198.48 2398.13C1259.3 2431.43 1313.26 2458.48 1360.81 2480.45ZM875.67 2223.72C820.479 2144.09 772.502 2056.42 728.891 1964.13C625.939 1746.25 562.416 1496.56 543.255 1236.96C537.64 1160.88 535.878 1084.55 537.92 1008.54L111.109 804.692C121.203 1019.54 168.429 1231.25 250.906 1430.37C344.556 1656.46 481.82 1861.89 654.862 2034.93C723.599 2103.67 797.447 2166.76 875.67 2223.72ZM1658.35 172.096C1516.3 376.067 1378.93 637.254 1304.92 868.24C1220.8 1130.75 1183.47 1398.99 1195.62 1649.15C1207.75 1898.93 1268.74 2121.61 1371.22 2298.74C1440.51 2406.59 1518.21 2476.03 1578 2518.32C1608 2539.55 1633.48 2553.93 1651.05 2562.85C1653.76 2564.22 1656.28 2565.46 1658.6 2566.58L1659.08 2566.53C1680.65 2552.27 1699.31 2540.18 1715.41 2529.74L1715.45 2529.71L1715.48 2529.69C1725.87 2522.96 1735.19 2516.92 1743.55 2511.43C1770.95 2493.43 1788.49 2481.04 1804.48 2467.07C1836.84 2438.8 1865.92 2401.74 1946.38 2295.51C2048.22 2118.68 2108.83 1896.66 2120.92 1647.74C2133.07 1397.58 2095.74 1129.34 2011.63 866.827C1937.63 635.906 1800.39 375.843 1658.35 172.096ZM2229.85 1653.03C2242.3 1396.57 2205.53 1124.18 2123.23 858.167L2622.45 569.79C2673.91 780.622 2692.3 1005.76 2675.83 1228.93C2657.58 1476.35 2597.12 1712.81 2500.42 1917.54C2403.67 2122.35 2274.2 2287.97 2124.78 2401.43C2100.41 2419.94 2075.48 2437.07 2050.11 2452.77C2006.03 2474.49 1961.4 2492.3 1918.55 2506.85C1948.24 2473.55 1982.33 2428.68 2035.36 2358.65L2037.38 2355.99L2039.06 2353.09C2152.2 2158.03 2217.01 1917.3 2229.85 1653.03ZM2682.25 2034.93C2604.14 2113.04 2519.43 2183.86 2429.2 2246.67C2493.3 2162.08 2550.29 2067.28 2599.02 1964.12C2701.94 1746.25 2765.44 1496.56 2784.59 1236.96C2790.18 1161.17 2791.95 1085.14 2789.95 1009.42L3226.03 804.131C3215.99 1019.17 3168.76 1231.08 3086.21 1430.37C2992.56 1656.46 2855.29 1861.89 2682.25 2034.93Z" fill="black"/>
</svg>
